{"title":"The.Transporter.Refueled.2015.CAM.x264-MenaceIISociety","uid":12388250,"size":631636423,"categoryP":"video","categoryS":"movies","magnet":"?xt=urn:btih:4198e1a1fcbca810869effac1bbf87c1345c3697&amp;dn=The.Transporter.Refueled.2015.CAM.x264-MenaceIISociety&amp;tr=udp%3A%2F%2Ftracker.openbittorrent.com%3A80&amp;tr=udp%3A%2F%2Fopen.demonii.com%3A1337&amp;tr=udp%3A%2F%2Ftracker.coppersurfer.tk%3A6969&amp;tr=udp%3A%2F%2Fexodus.desync.com%3A6969","seeders":23,"leechers":14,"uploader":"SS132203","files":4,"time":1441854833,"description":"The Transporter Refueled 2015 CAM x264-MenaceIISociety\n &lt;a href=&quot;\nhttp://imgsparrow.co/image/85x&quot; rel=&quot;nofollow&quot; target=&quot;_NEW&quot;&gt;\nhttp://imgsparrow.co/image/85x&lt;/a&gt;\n &lt;a href=&quot;\nhttp://imgsparrow.co/image/9b&quot; rel=&quot;nofollow&quot; target=&quot;_NEW&quot;&gt;\nhttp://imgsparrow.co/image/9b&lt;/a&gt;\n\nInfo : - \n\nThank MenaceIISociety Not ME!\n\nThe.Transporter.Refueled.2015.CAM.x264-MenaceIISociety\n &lt;a href=&quot;\nhttp://www.imdb.com/title/tt2938956/&quot; rel=&quot;nofollow&quot; target=&quot;_NEW&quot;&gt;\nhttp://www.imdb.com/title/tt2938956/&lt;/a&gt;\nSource: CAM Xvid UnKnOwN [THANKS]\n\nNOTE: Resized, run a deblock, denoiser, tried correcting the colors/dark/gamma_y a bit better, adjusted a few levels. its nothing special\n\nGeneral\nComplete name: The.Transporter.Refueled.2015.CAM.x264-MenaceIISociety.mp4\nFormat: MPEG-4\nFormat profile: Base Media\nCodec ID: isom\nFile size: 589 MiB\nDuration: 1h 29mn\nOverall bit rate mode: Variable\nOverall bit rate: 916 Kbps\nEncoded date: UTC 2015-09-09 20:18:59\nTagged date: UTC 2015-09-09 20:18:59\n\nVideo\nID: 1\nFormat: AVC\nFormat/Info: Advanced Video Codec\nFormat profile: &lt;a class=&quot;__cf_email__&quot; href=&quot;/cdn-cgi/l/email-protection&quot; data-cfemail=&quot;90d8f9f7f8d0dca4bea1&quot;&gt;[email&amp;#160;protected]&lt;/a&gt;&lt;script data-cfhash='f9e31' type=&quot;text/javascript&quot;&gt;\n/* &lt;![CDATA[ */!function(){try{var t=&quot;currentScript&quot;in document?document.currentScript:function(){for(var t=document.getElementsByTagName(&quot;script&quot;),e=t.length;e--;)if(t[e].getAttribute(&quot;data-cfhash&quot;))return t[e]}();if(t&amp;&amp;t.previousSibling){var e,r,n,i,c=t.previousSibling,a=c.getAttribute(&quot;data-cfemail&quot;);if(a){for(e=&quot;&quot;,r=parseInt(a.substr(0,2),16),n=2;a.length-n;n+=2)i=parseInt(a.substr(n,2),16)^r,e+=String.fromCharCode(i);e=document.createTextNode(e),c.parentNode.replaceChild(e,c)}t.parentNode.removeChild(t);}}catch(u){}}()/* ]]&gt; */&lt;/script&gt;\nFormat settings, CABAC: Yes\nFormat settings, ReFrames: 3 frames\nCodec ID: avc1\nCodec ID/Info: Advanced Video Coding\nDuration: 1h 29mn\nBit rate mode: Variable\nBit rate: 798 Kbps\nMaximum bit rate: 40.0 Mbps\nWidth: 720 pixels\nHeight: 288 pixels\nDisplay aspect ratio: 2.500\nFrame rate mode: Constant\nFrame rate: 25.000 fps\nColor space: YUV\nChroma subsampling: 4:2:0\nBit depth: 8 bits\nScan type: Progressive\nBits/(Pixel*Frame): 0.154\nStream size: 513 MiB (87%)\nWriting library: x264 core 148 r2597 e86f3a1\n\nAudio\nID: 2\nFormat: AAC\nFormat/Info: Advanced Audio Codec\nFormat profile: LC\nCodec ID: 40\nDuration: 1h 29mn\nBit rate mode: Variable\nBit rate: 114 Kbps\nMaximum bit rate: 131 Kbps\nChannel(s): 2 channels\nChannel positions: Front: L R\nSampling rate: 44.1 KHz\nCompression mode: Lossy\nStream size: 73.3 MiB (12%)\nEncoded date: UTC 2015-09-09 03:05:23\nTagged date: UTC 2015-09-09 20:19:41 \n\nScreens : -\n &lt;a href=&quot;\nhttp://imgsparrow.co/image/8QX&quot; rel=&quot;nofollow&quot; target=&quot;_NEW&quot;&gt;\nhttp://imgsparrow.co/image/8QX&lt;/a&gt; &lt;a href=&quot;\nhttp://imgsparrow.co/image/8QY&quot; rel=&quot;nofollow&quot; target=&quot;_NEW&quot;&gt;\nhttp://imgsparrow.co/image/8QY&lt;/a&gt; &lt;a href=&quot;\nhttp://imgsparrow.co/image/8Qc&quot; rel=&quot;nofollow&quot; target=&quot;_NEW&quot;&gt;\nhttp://imgsparrow.co/image/8Qc&lt;/a&gt; &lt;a href=&quot;\nhttp://imgsparrow.co/image/8Qd&quot; rel=&quot;nofollow&quot; target=&quot;_NEW&quot;&gt;\nhttp://imgsparrow.co/image/8Qd&lt;/a&gt; &lt;a href=&quot;\nhttp://imgsparrow.co/image/8Qo&quot; rel=&quot;nofollow&quot; target=&quot;_NEW&quot;&gt;\nhttp://imgsparrow.co/image/8Qo&lt;/a&gt; &lt;a href=&quot;\nhttp://imgsparrow.co/image/8QM&quot; rel=&quot;nofollow&quot; target=&quot;_NEW&quot;&gt;\nhttp://imgsparrow.co/image/8QM&lt;/a&gt; &lt;a href=&quot;\nhttp://imgsparrow.co/image/8Qm&quot; rel=&quot;nofollow&quot; target=&quot;_NEW&quot;&gt;\nhttp://imgsparrow.co/image/8Qm&lt;/a&gt; &lt;a href=&quot;\nhttp://imgsparrow.co/image/8QF&quot; rel=&quot;nofollow&quot; target=&quot;_NEW&quot;&gt;\nhttp://imgsparrow.co/image/8QF&lt;/a&gt;\n &lt;a href=&quot;\nhttp://imgsparrow.co/image/8nG&quot; rel=&quot;nofollow&quot; target=&quot;_NEW&quot;&gt;\nhttp://imgsparrow.co/image/8nG&lt;/a&gt;","torrent":{"xt":"urn:btih:4198e1a1fcbca810869effac1bbf87c1345c3697","amp;dn":"The.Transporter.Refueled.2015.CAM.x264-MenaceIISociety","amp;tr":["udp%3A%2F%2Ftracker.openbittorrent.com%3A80","udp%3A%2F%2Fopen.demonii.com%3A1337","udp%3A%2F%2Ftracker.coppersurfer.tk%3A6969","udp%3A%2F%2Fexodus.desync.com%3A6969"],"infoHash":"4198e1a1fcbca810869effac1bbf87c1345c3697","infoHashBuffer":{"type":"Buffer","data":[65,152,225,161,252,188,168,16,134,158,255,172,27,191,135,193,52,92,54,151]},"announce":[],"urlList":[]}}